# xmcd
#
# Track frame offsets: 
#        150
#        19357
#        39227
#        58454
#        77305
#        95831
#        115188
#        133640
#        154787
#        174144
#        193703
#        213123
#        231503
#        248580
#        269503
#        289810
#
# Disc length: 4095 seconds
#
# Revision: 0
# Processed by: cddbd v1.5.2PL0 Copyright (c) Steve Scherf et al.
# Submitted via: ExactAudioCopyFreeDBPlugin 1.0
#
DISCID=de0ffd10
DTITLE=รวมศิลปิน - ตามรอยปากกา ครูสลา คุณวุฒิ ชุดที่ 6
DYEAR=1900
DGENRE=Country
TTITLE0=ต่าย อรทัย - ฝันยังไกล ใจยังหนาว
TTITLE1=ต่าย อรทัย - รู้ว่าเขาหมดใจ แต่ทำไมยังรักเหลือเกิน
TTITLE2=มนต์แคน แก่นคูณ - ชีวิตเพื่อชาติ หัวใจเพื่อเธอ
TTITLE3=มนต์แคน แก่นคูณ - แด่..คนที่อ้ายฮัก
TTITLE4=ไหมไทย ใจตะวัน - คนน่าฮัก อกหักบ่คือ
TTITLE5=ไหมไทย ใจตะวัน - เจ้าทำให้อ้าย..มีวาเลนไทน์ทุกวัน
TTITLE6=ต่าย อรทัย - ไม่ร้องไห้ ไม่ใช่ไม่เจ็บ
TTITLE7=ข้าวทิพย์ ธิดาดิน - สาวหมอลำส่ำน้อย
TTITLE8=ข้าวธิพย์ ธิดาดิน - อยู๋กับเขาเหงาด้วยหรือ
TTITLE9=มนต์แคน-ไหมไทย - สิงห์คะนองลำ
TTITLE10=รัชนก ศรีโลพันธุ์ - อยากจบแต่กลัวเจ็บ
TTITLE11=ไผ่ พงศธร - รอเด้อคนดี
TTITLE12=เอิ้นขวัญ วรัญญา - คนกำลังน้อยใจ
TTITLE13=ศิริพร อำไพพงษ์ - มาก่อนได้หน้า มาช้าได้ใจ
TTITLE14=ศิริพร-โจ๊ก So Cool - อย่าไว้ใจทาง อย่าวางใจแฟน
TTITLE15=ไหมไทย ใจตะวัน - คนอ่อนไหว..กำลังใจสำคัญที่สุด
EXTD=
EXTT0=
EXTT1=
EXTT2=
EXTT3=
EXTT4=
EXTT5=
EXTT6=
EXTT7=
EXTT8=
EXTT9=
EXTT10=
EXTT11=
EXTT12=
EXTT13=
EXTT14=
EXTT15=
PLAYORDER=
